<svg xmlns="http://www.w3.org/2000/svg" width="899.91" height="302.188" viewBox="0 0 899.91 302.188">
  <defs>
    <style>
      .cls-1 {
        fill: #fff;
        fill-rule: evenodd;
      }
    </style>
  </defs>
  <path id="logo.svg" class="cls-1" d="M623.17,312.981a33.358,33.358,0,0,0-14.9-3.264q-13.659,0-22.73,8.831a29.183,29.183,0,0,0-9.072,21.768,31.057,31.057,0,0,0,7.49,20.987Q592.89,371.6,608.351,371.6a34.5,34.5,0,0,0,14.719-3.064,29.7,29.7,0,0,0,10.994-8.672l-4.646-3.524a26.215,26.215,0,0,1-20.707,9.692q-11.255,0-18.644-7.209a24.1,24.1,0,0,1-7.39-17.983,25.149,25.149,0,0,1,3.3-12.837,24.3,24.3,0,0,1,9.312-9.092,26.158,26.158,0,0,1,13.057-3.384,27.019,27.019,0,0,1,11.835,2.583,25.416,25.416,0,0,1,9.232,7.59l4.646-3.564A28.928,28.928,0,0,0,623.17,312.981Zm19.665,57.134h5.728V355.376q0-11.334,1.041-15.06a14.558,14.558,0,0,1,3.965-7.149,8.109,8.109,0,0,1,5.407-2.3,7.806,7.806,0,0,1,2.964.761l2.924-4.726a10.227,10.227,0,0,0-4.967-1.482,10.665,10.665,0,0,0-5.927,1.862,20.087,20.087,0,0,0-5.407,5.628v-6.369h-5.728v43.577Zm58.71-8.275a17.028,17.028,0,0,1-5.353,3.072,18.621,18.621,0,0,1-6.476,1.158,15.474,15.474,0,0,1-11.589-4.856,17.735,17.735,0,0,1-4.852-12.447h39.21q-0.079-8.931-4.81-14.9a21.5,21.5,0,0,0-17.8-8.451,20.813,20.813,0,0,0-17.278,8.251,23.3,23.3,0,0,0-5.091,14.779,23.577,23.577,0,0,0,6.014,15.8q6.014,6.99,16.676,6.989a23.9,23.9,0,0,0,8.619-1.462,21.337,21.337,0,0,0,6.856-4.265,25.8,25.8,0,0,0,5.372-7.37l-4.727-2.483A26.121,26.121,0,0,1,701.545,361.84Zm-27.71-17.919q1.724-6.007,5.093-9.012a15.977,15.977,0,0,1,11.028-4.125,17.379,17.379,0,0,1,7.419,1.642,15.476,15.476,0,0,1,5.674,4.326,18.6,18.6,0,0,1,3.268,7.169H673.835Zm86.993-17.383v8.011a22.108,22.108,0,0,0-7.63-6.849,20.561,20.561,0,0,0-9.712-2.283,21.55,21.55,0,0,0-15.9,6.689,22.081,22.081,0,0,0-6.609,16.1,22.5,22.5,0,0,0,6.549,16.322,22.1,22.1,0,0,0,25.393,4.545,24.022,24.022,0,0,0,7.91-6.448v7.49h5.527V326.538h-5.527Zm-4.62,9.367a17.345,17.345,0,0,1,4.981,12.642,17.927,17.927,0,0,1-2.221,8.921,16.228,16.228,0,0,1-6.341,6.281,17.507,17.507,0,0,1-8.721,2.321,16.565,16.565,0,0,1-8.542-2.341,17.179,17.179,0,0,1-6.34-6.541,17.655,17.655,0,0,1-.02-17.6,16.905,16.905,0,0,1,14.942-8.762A16.5,16.5,0,0,1,756.208,335.905Zm27.65-9.367h-7.65v4.847h7.65v38.73h5.607v-38.73h8.892v-4.847h-8.892V310.357h-5.607v16.181Zm54.825,35.3a17.022,17.022,0,0,1-5.354,3.072,18.617,18.617,0,0,1-6.476,1.158,15.476,15.476,0,0,1-11.589-4.856,17.739,17.739,0,0,1-4.852-12.447h39.211q-0.081-8.931-4.811-14.9a21.5,21.5,0,0,0-17.8-8.451,20.811,20.811,0,0,0-17.278,8.251,23.29,23.29,0,0,0-5.091,14.779,23.576,23.576,0,0,0,6.013,15.8q6.014,6.99,16.677,6.989a23.909,23.909,0,0,0,8.619-1.462,21.322,21.322,0,0,0,6.855-4.265,25.779,25.779,0,0,0,5.372-7.37l-4.726-2.483A26.147,26.147,0,0,1,838.683,361.84Zm-27.71-17.919q1.724-6.007,5.093-9.012a15.977,15.977,0,0,1,11.028-4.125,17.378,17.378,0,0,1,7.418,1.642,15.459,15.459,0,0,1,5.674,4.326,18.6,18.6,0,0,1,3.269,7.169H810.973Zm116.711-30.94a33.358,33.358,0,0,0-14.9-3.264q-13.659,0-22.73,8.831a29.182,29.182,0,0,0-9.071,21.768,31.056,31.056,0,0,0,7.489,20.987Q897.4,371.6,912.865,371.6a34.5,34.5,0,0,0,14.719-3.064,29.691,29.691,0,0,0,10.994-8.672l-4.646-3.524a26.215,26.215,0,0,1-20.707,9.692q-11.255,0-18.644-7.209a24.1,24.1,0,0,1-7.389-17.983A25.149,25.149,0,0,1,890.5,328a24.3,24.3,0,0,1,9.312-9.092,26.158,26.158,0,0,1,13.057-3.384,27.016,27.016,0,0,1,11.835,2.583,25.416,25.416,0,0,1,9.232,7.59l4.646-3.564A28.92,28.92,0,0,0,927.684,312.981Zm53.7,48.859a17.017,17.017,0,0,1-5.353,3.072,18.617,18.617,0,0,1-6.476,1.158,15.476,15.476,0,0,1-11.589-4.856,17.735,17.735,0,0,1-4.852-12.447h39.211q-0.081-8.931-4.811-14.9a21.5,21.5,0,0,0-17.8-8.451,20.813,20.813,0,0,0-17.278,8.251,23.3,23.3,0,0,0-5.091,14.779,23.577,23.577,0,0,0,6.014,15.8q6.013,6.99,16.676,6.989a23.91,23.91,0,0,0,8.62-1.462,21.333,21.333,0,0,0,6.855-4.265,25.779,25.779,0,0,0,5.372-7.37l-4.726-2.483A26.121,26.121,0,0,1,981.387,361.84Zm-27.709-17.919q1.723-6.007,5.092-9.012a15.977,15.977,0,0,1,11.028-4.125,17.379,17.379,0,0,1,7.419,1.642,15.476,15.476,0,0,1,5.674,4.326,18.6,18.6,0,0,1,3.269,7.169H953.678Zm48.262,26.194h5.61v-60.4h-5.61v60.4Zm16.42,0h5.61v-60.4h-5.61v60.4Zm40.92-25v-4.051h182.28v4.051H1059.28Zm-702.8,0v-4.051H538.763v4.051H356.482Zm878.158-99.688,15.26-86.587h-52.82a87.965,87.965,0,0,0,3.85-12.944h-13.99c-3.7,18.017-13.41,30.436-25.56,35.859l3.63,13.119a62.173,62.173,0,0,0,25.08-22.215h43.73l-12.05,68.4c-1.11,6.3-5.91,10.67-12.38,10.67h-5.6l-2.68,15.218h8.05A25.51,25.51,0,0,0,1234.64,245.432Zm-29.73,56.5,2.53-14.344h-37.43a5.6,5.6,0,0,1-5.48-6.647l6.05-34.285h34.46l9.12-51.777h-42.5l-2.41,13.644h29.74l-4.26,24.139h-35.15l-8.98,50.9c-1.97,11.195,4.11,18.367,15.48,18.367h38.83Zm-67.66-20.991L1160.43,149.4h-53.87l-14.99,85.013c-3.51,19.941-9.23,32.535-17.76,43.205l9.98,7.872c8.88-10.67,14.66-23.615,18.32-37.433h27.64l-5.18,29.387c-1.2,6.822-4.29,12.419-11.11,12.419h-3.32l-2.5,14.169h5.94C1126.35,304.031,1134.96,293.885,1137.25,280.941Zm2.21-87.986h-27.11l5.18-29.387h27.11Zm-7.43,42.156h-27.11l5.15-29.212h27.11Zm-71.4,8.086,26.89-152.533H1013.7L986.811,243.2h73.819Zm-71.866-60.7-0.09-39.183-10.454,1.749,0.158,16.968c-5.443,2.1-11.575,3.148-20.671,3.148H937.066l53.825-49.328-7.77-7.522-15.473,14.344H941.935l30.2-27.463-7.245-7.522-35.616,32.361-2.621,14.869H954.3l-32.941,30.086-2.405,13.644h29.737l-11.471,65.072H949.81L961.342,178.3c6.6-.7,13.489-2.1,16.915-3.673l0.023,9.8Zm-7.975,47.229-1.35-11.2-11.781,3.323,1.35,11.195ZM929.8,211.361l-11.349-2.1-4.134,11.545,11.144,2.274Zm132.42-51.6h-18.37l9.62-54.576h18.37Zm-29.22,0h-18.36l9.62-54.576h18.37Zm17.07,68.919H1031.7l9.62-54.576h18.37Zm-29.21,0h-18.37l9.62-54.576h18.37Zm-132.971-32.2c5.421-30.755-9.974-50.192-42.328-50.192-38.013,0-62.923,27.556-68.257,57.819-4.142,23.5,4.987,42.2,21.718,42.2,20.667,0,37.891-27.926,46.891-76.887h-10.7c-7.7,41.58-20.249,65.323-33.9,65.323-10.334,0-16.14-12.425-12.93-30.632,4.488-25.465,23.907-46.993,54.907-46.993,27.434,0,37.7,15.746,33.578,39.12a41.5,41.5,0,0,1-10.4,19.929l7.976,6.4C880.939,215.669,886.285,205.581,887.889,196.478Zm-125.96-81.049,2.313-13.119H725.059l2.22-12.594H711.886l-2.22,12.594H683.952a73.105,73.105,0,0,0,3.065-9.446H673.023c-3.106,10.671-9.328,24.14-17.434,33.411l12.523,4.373a80.807,80.807,0,0,0,9.854-15.219h29.387l-4.1,23.265h-32.36l-2.282,12.944H743.3l2.282-12.944H718.646l4.1-23.265h39.183Zm-17.483,99.182,8.295-47.055H655.309l-8.295,47.055h97.432ZM638.154,108.083l-6.185-8.571-9.661,7.172,6.361,8.572Zm86.9,137.139,2.466-13.994H649.158c-16.093,0-21.414-4.548-22.64-13.469l11.008-62.447H603.591l-2.652,15.043h19.242l-8.387,47.579L592.3,229.3l4.6,12.6,18.18-10.846c4.282,9.446,10.971,14.169,29.163,14.169h80.815Zm6.443-42.506H664.154l4.132-23.44h67.345ZM557.223,258.034l29.31-166.277H567.5L539.158,252.563c-1.049,5.947-7.134,12.132-14.033,12.132H503.478l-3.354,19.03h25.928C540.563,283.725,554.708,272.307,557.223,258.034Zm-46.082-19.268L537.055,91.757H519.214L493.3,238.766h17.841ZM508.2,102.937c-22.081-4.282-44.934-19.03-48.324-33.541h-22.36c-8.5,14.511-36.558,29.259-60.149,33.541l2,18.317c22.373-5.471,50.062-19.506,66.766-37.347,10.89,17.841,33.631,31.876,53.838,37.347Zm-41.261,19.506,2.223-12.607H411.6l-2.222,12.607h57.566Zm4.664,158.428,10.021-56.853H385.048a142.257,142.257,0,0,0,6.1-15.7h89.918l13.167-74.694H386l-10.609,60.183c-3.941,22.361-13.649,38.3-25.373,49.479l8.959,16.651a112.91,112.91,0,0,0,21.11-26.642L371.7,280.871h99.91ZM469.441,163.6h-69.46l2.767-15.7h69.461Zm-5.325,30.211H394.655l2.768-15.7h69.46Zm-8.577,71.6H393.69l4.571-25.929h61.848Z" transform="translate(-350 -69.406)"/>
</svg>
